<svg width="145" height="106" viewBox="0 0 145 106" fill="none" xmlns="http://www.w3.org/2000/svg">
<rect width="145" height="106" fill="#FFFCFC"/>
<rect width="145" height="106" fill="#1D1C1C"/>
<path d="M34.472 64.384C32.7013 64.384 31.0693 64.1067 29.576 63.552C28.104 62.976 26.8133 62.1653 25.704 61.12C24.616 60.0747 23.7627 58.848 23.144 57.44C22.5467 56.032 22.248 54.4853 22.248 52.8C22.248 51.1147 22.5467 49.568 23.144 48.16C23.7627 46.752 24.6267 45.5253 25.736 44.48C26.8453 43.4347 28.1467 42.6347 29.64 42.08C31.1333 41.504 32.776 41.216 34.568 41.216C36.552 41.216 38.3333 41.5467 39.912 42.208C41.512 42.8693 42.856 43.8293 43.944 45.088L40.616 48.16C39.8053 47.3067 38.92 46.6773 37.96 46.272C37 45.8453 35.9547 45.632 34.824 45.632C33.736 45.632 32.744 45.8027 31.848 46.144C30.952 46.4853 30.1733 46.976 29.512 47.616C28.872 48.256 28.3707 49.0133 28.008 49.888C27.6667 50.7627 27.496 51.7333 27.496 52.8C27.496 53.8453 27.6667 54.8053 28.008 55.68C28.3707 56.5547 28.872 57.3227 29.512 57.984C30.1733 58.624 30.9413 59.1147 31.816 59.456C32.712 59.7973 33.6933 59.968 34.76 59.968C35.784 59.968 36.776 59.808 37.736 59.488C38.7173 59.1467 39.6667 58.5813 40.584 57.792L43.528 61.536C42.312 62.4533 40.8933 63.1573 39.272 63.648C37.672 64.1387 36.072 64.384 34.472 64.384ZM38.792 60.864V52.448H43.528V61.536L38.792 60.864ZM48.3435 64V41.6H58.0395C60.0448 41.6 61.7728 41.9307 63.2235 42.592C64.6742 43.232 65.7942 44.16 66.5835 45.376C67.3728 46.592 67.7675 48.0427 67.7675 49.728C67.7675 51.392 67.3728 52.832 66.5835 54.048C65.7942 55.264 64.6742 56.2027 63.2235 56.864C61.7728 57.504 60.0448 57.824 58.0395 57.824H51.2235L53.5275 55.488V64H48.3435ZM53.5275 56.064L51.2235 53.6H57.7515C59.3515 53.6 60.5462 53.2587 61.3355 52.576C62.1248 51.8933 62.5195 50.944 62.5195 49.728C62.5195 48.4907 62.1248 47.5307 61.3355 46.848C60.5462 46.1653 59.3515 45.824 57.7515 45.824H51.2235L53.5275 43.36V56.064ZM79.141 64.384C77.349 64.384 75.6317 64.1493 73.989 63.68C72.3463 63.1893 71.0237 62.56 70.021 61.792L71.781 57.888C72.741 58.5707 73.8717 59.136 75.173 59.584C76.4957 60.0107 77.829 60.224 79.173 60.224C80.197 60.224 81.0183 60.128 81.637 59.936C82.277 59.7227 82.7463 59.4347 83.045 59.072C83.3437 58.7093 83.493 58.2933 83.493 57.824C83.493 57.2267 83.2583 56.7573 82.789 56.416C82.3197 56.0533 81.701 55.7653 80.933 55.552C80.165 55.3173 79.3117 55.104 78.373 54.912C77.4557 54.6987 76.5277 54.4427 75.589 54.144C74.6717 53.8453 73.829 53.4613 73.061 52.992C72.293 52.5227 71.6637 51.904 71.173 51.136C70.7037 50.368 70.469 49.3867 70.469 48.192C70.469 46.912 70.8103 45.7493 71.493 44.704C72.197 43.6373 73.2423 42.7947 74.629 42.176C76.037 41.536 77.797 41.216 79.909 41.216C81.317 41.216 82.7037 41.3867 84.069 41.728C85.4343 42.048 86.6397 42.5387 87.685 43.2L86.085 47.136C85.0397 46.5387 83.9943 46.1013 82.949 45.824C81.9037 45.5253 80.8797 45.376 79.877 45.376C78.8743 45.376 78.053 45.4933 77.413 45.728C76.773 45.9627 76.3143 46.272 76.037 46.656C75.7597 47.0187 75.621 47.4453 75.621 47.936C75.621 48.512 75.8557 48.9813 76.325 49.344C76.7943 49.6853 77.413 49.9627 78.181 50.176C78.949 50.3893 79.7917 50.6027 80.709 50.816C81.6477 51.0293 82.5757 51.2747 83.493 51.552C84.4317 51.8293 85.285 52.2027 86.053 52.672C86.821 53.1413 87.4397 53.76 87.909 54.528C88.3997 55.296 88.645 56.2667 88.645 57.44C88.645 58.6987 88.293 59.8507 87.589 60.896C86.885 61.9413 85.829 62.784 84.421 63.424C83.0343 64.064 81.2743 64.384 79.141 64.384ZM97.9495 64.384C96.3922 64.384 94.8455 64.1813 93.3095 63.776C91.7735 63.3493 90.4722 62.752 89.4055 61.984L91.4215 58.016C92.2748 58.6347 93.2668 59.1253 94.3975 59.488C95.5282 59.8507 96.6695 60.032 97.8215 60.032C99.1228 60.032 100.147 59.776 100.894 59.264C101.64 58.752 102.014 58.048 102.014 57.152C102.014 56.2987 101.683 55.6267 101.022 55.136C100.36 54.6453 99.2935 54.4 97.8215 54.4H95.4535V50.976L101.694 43.904L102.27 45.76H90.5255V41.6H106.206V44.96L99.9975 52.032L97.3735 50.528H98.8775C101.63 50.528 103.71 51.1467 105.118 52.384C106.526 53.6213 107.23 55.2107 107.23 57.152C107.23 58.4107 106.899 59.5947 106.238 60.704C105.576 61.792 104.563 62.6773 103.198 63.36C101.832 64.0427 100.083 64.384 97.9495 64.384Z" fill="#FFFCFC"/>
<path d="M34.472 64.384C32.7013 64.384 31.0693 64.1067 29.576 63.552C28.104 62.976 26.8133 62.1653 25.704 61.12C24.616 60.0747 23.7627 58.848 23.144 57.44C22.5467 56.032 22.248 54.4853 22.248 52.8C22.248 51.1147 22.5467 49.568 23.144 48.16C23.7627 46.752 24.6267 45.5253 25.736 44.48C26.8453 43.4347 28.1467 42.6347 29.64 42.08C31.1333 41.504 32.776 41.216 34.568 41.216C36.552 41.216 38.3333 41.5467 39.912 42.208C41.512 42.8693 42.856 43.8293 43.944 45.088L40.616 48.16C39.8053 47.3067 38.92 46.6773 37.96 46.272C37 45.8453 35.9547 45.632 34.824 45.632C33.736 45.632 32.744 45.8027 31.848 46.144C30.952 46.4853 30.1733 46.976 29.512 47.616C28.872 48.256 28.3707 49.0133 28.008 49.888C27.6667 50.7627 27.496 51.7333 27.496 52.8C27.496 53.8453 27.6667 54.8053 28.008 55.68C28.3707 56.5547 28.872 57.3227 29.512 57.984C30.1733 58.624 30.9413 59.1147 31.816 59.456C32.712 59.7973 33.6933 59.968 34.76 59.968C35.784 59.968 36.776 59.808 37.736 59.488C38.7173 59.1467 39.6667 58.5813 40.584 57.792L43.528 61.536C42.312 62.4533 40.8933 63.1573 39.272 63.648C37.672 64.1387 36.072 64.384 34.472 64.384ZM38.792 60.864V52.448H43.528V61.536L38.792 60.864ZM48.3435 64V41.6H58.0395C60.0448 41.6 61.7728 41.9307 63.2235 42.592C64.6742 43.232 65.7942 44.16 66.5835 45.376C67.3728 46.592 67.7675 48.0427 67.7675 49.728C67.7675 51.392 67.3728 52.832 66.5835 54.048C65.7942 55.264 64.6742 56.2027 63.2235 56.864C61.7728 57.504 60.0448 57.824 58.0395 57.824H51.2235L53.5275 55.488V64H48.3435ZM53.5275 56.064L51.2235 53.6H57.7515C59.3515 53.6 60.5462 53.2587 61.3355 52.576C62.1248 51.8933 62.5195 50.944 62.5195 49.728C62.5195 48.4907 62.1248 47.5307 61.3355 46.848C60.5462 46.1653 59.3515 45.824 57.7515 45.824H51.2235L53.5275 43.36V56.064ZM79.141 64.384C77.349 64.384 75.6317 64.1493 73.989 63.68C72.3463 63.1893 71.0237 62.56 70.021 61.792L71.781 57.888C72.741 58.5707 73.8717 59.136 75.173 59.584C76.4957 60.0107 77.829 60.224 79.173 60.224C80.197 60.224 81.0183 60.128 81.637 59.936C82.277 59.7227 82.7463 59.4347 83.045 59.072C83.3437 58.7093 83.493 58.2933 83.493 57.824C83.493 57.2267 83.2583 56.7573 82.789 56.416C82.3197 56.0533 81.701 55.7653 80.933 55.552C80.165 55.3173 79.3117 55.104 78.373 54.912C77.4557 54.6987 76.5277 54.4427 75.589 54.144C74.6717 53.8453 73.829 53.4613 73.061 52.992C72.293 52.5227 71.6637 51.904 71.173 51.136C70.7037 50.368 70.469 49.3867 70.469 48.192C70.469 46.912 70.8103 45.7493 71.493 44.704C72.197 43.6373 73.2423 42.7947 74.629 42.176C76.037 41.536 77.797 41.216 79.909 41.216C81.317 41.216 82.7037 41.3867 84.069 41.728C85.4343 42.048 86.6397 42.5387 87.685 43.2L86.085 47.136C85.0397 46.5387 83.9943 46.1013 82.949 45.824C81.9037 45.5253 80.8797 45.376 79.877 45.376C78.8743 45.376 78.053 45.4933 77.413 45.728C76.773 45.9627 76.3143 46.272 76.037 46.656C75.7597 47.0187 75.621 47.4453 75.621 47.936C75.621 48.512 75.8557 48.9813 76.325 49.344C76.7943 49.6853 77.413 49.9627 78.181 50.176C78.949 50.3893 79.7917 50.6027 80.709 50.816C81.6477 51.0293 82.5757 51.2747 83.493 51.552C84.4317 51.8293 85.285 52.2027 86.053 52.672C86.821 53.1413 87.4397 53.76 87.909 54.528C88.3997 55.296 88.645 56.2667 88.645 57.44C88.645 58.6987 88.293 59.8507 87.589 60.896C86.885 61.9413 85.829 62.784 84.421 63.424C83.0343 64.064 81.2743 64.384 79.141 64.384ZM97.9495 64.384C96.3922 64.384 94.8455 64.1813 93.3095 63.776C91.7735 63.3493 90.4722 62.752 89.4055 61.984L91.4215 58.016C92.2748 58.6347 93.2668 59.1253 94.3975 59.488C95.5282 59.8507 96.6695 60.032 97.8215 60.032C99.1228 60.032 100.147 59.776 100.894 59.264C101.64 58.752 102.014 58.048 102.014 57.152C102.014 56.2987 101.683 55.6267 101.022 55.136C100.36 54.6453 99.2935 54.4 97.8215 54.4H95.4535V50.976L101.694 43.904L102.27 45.76H90.5255V41.6H106.206V44.96L99.9975 52.032L97.3735 50.528H98.8775C101.63 50.528 103.71 51.1467 105.118 52.384C106.526 53.6213 107.23 55.2107 107.23 57.152C107.23 58.4107 106.899 59.5947 106.238 60.704C105.576 61.792 104.563 62.6773 103.198 63.36C101.832 64.0427 100.083 64.384 97.9495 64.384ZM111.031 64V41.6H121.207C123.639 41.6 125.783 42.0693 127.639 43.008C129.495 43.9253 130.946 45.216 131.991 46.88C133.036 48.544 133.559 50.5173 133.559 52.8C133.559 55.0613 133.036 57.0347 131.991 58.72C130.946 60.384 129.495 61.6853 127.639 62.624C125.783 63.5413 123.639 64 121.207 64H111.031ZM116.215 59.744H120.951C122.444 59.744 123.735 59.4667 124.823 58.912C125.932 58.336 126.786 57.5253 127.383 56.48C128.002 55.4347 128.311 54.208 128.311 52.8C128.311 51.3707 128.002 50.144 127.383 49.12C126.786 48.0747 125.932 47.2747 124.823 46.72C123.735 46.144 122.444 45.856 120.951 45.856H116.215V59.744Z" fill="#FFFCFC"/>
<path d="M28.0909 69H135V72H23L28.0909 69Z" fill="#FFFCFC"/>
<path d="M5.57 82V79.14L5.94 80.12L2.86 75H4.58L6.94 78.93H5.95L8.32 75H9.91L6.83 80.12L7.19 79.14V82H5.57ZM12.4421 82.08C11.8688 82.08 11.3588 81.96 10.9121 81.72C10.4721 81.48 10.1221 81.1533 9.86211 80.74C9.60878 80.32 9.48211 79.8433 9.48211 79.31C9.48211 78.77 9.60878 78.2933 9.86211 77.88C10.1221 77.46 10.4721 77.1333 10.9121 76.9C11.3588 76.66 11.8688 76.54 12.4421 76.54C13.0088 76.54 13.5154 76.66 13.9621 76.9C14.4088 77.1333 14.7588 77.4567 15.0121 77.87C15.2654 78.2833 15.3921 78.7633 15.3921 79.31C15.3921 79.8433 15.2654 80.32 15.0121 80.74C14.7588 81.1533 14.4088 81.48 13.9621 81.72C13.5154 81.96 13.0088 82.08 12.4421 82.08ZM12.4421 80.8C12.7021 80.8 12.9354 80.74 13.1421 80.62C13.3488 80.5 13.5121 80.33 13.6321 80.11C13.7521 79.8833 13.8121 79.6167 13.8121 79.31C13.8121 78.9967 13.7521 78.73 13.6321 78.51C13.5121 78.29 13.3488 78.12 13.1421 78C12.9354 77.88 12.7021 77.82 12.4421 77.82C12.1821 77.82 11.9488 77.88 11.7421 78C11.5354 78.12 11.3688 78.29 11.2421 78.51C11.1221 78.73 11.0621 78.9967 11.0621 79.31C11.0621 79.6167 11.1221 79.8833 11.2421 80.11C11.3688 80.33 11.5354 80.5 11.7421 80.62C11.9488 80.74 12.1821 80.8 12.4421 80.8ZM18.7048 82.08C18.2582 82.08 17.8582 81.9933 17.5048 81.82C17.1582 81.6467 16.8882 81.3833 16.6948 81.03C16.5015 80.67 16.4048 80.2133 16.4048 79.66V76.62H17.9648V79.43C17.9648 79.8767 18.0582 80.2067 18.2448 80.42C18.4382 80.6267 18.7082 80.73 19.0548 80.73C19.2948 80.73 19.5082 80.68 19.6948 80.58C19.8815 80.4733 20.0282 80.3133 20.1348 80.1C20.2415 79.88 20.2948 79.6067 20.2948 79.28V76.62H21.8548V82H20.3748V80.52L20.6448 80.95C20.4648 81.3233 20.1982 81.6067 19.8448 81.8C19.4982 81.9867 19.1182 82.08 18.7048 82.08ZM23.3001 82V76.62H24.7901V78.14L24.5801 77.7C24.7401 77.32 24.9967 77.0333 25.3501 76.84C25.7034 76.64 26.1334 76.54 26.6401 76.54V77.98C26.5734 77.9733 26.5134 77.97 26.4601 77.97C26.4067 77.9633 26.3501 77.96 26.2901 77.96C25.8634 77.96 25.5167 78.0833 25.2501 78.33C24.9901 78.57 24.8601 78.9467 24.8601 79.46V82H23.3001ZM32.6488 82L29.6287 75H31.3788L34.0188 81.2H32.9888L35.6688 75H37.2788L34.2488 82H32.6488ZM37.8411 82V76.62H39.4011V82H37.8411ZM38.6211 75.87C38.3344 75.87 38.1011 75.7867 37.9211 75.62C37.7411 75.4533 37.6511 75.2467 37.6511 75C37.6511 74.7533 37.7411 74.5467 37.9211 74.38C38.1011 74.2133 38.3344 74.13 38.6211 74.13C38.9078 74.13 39.1411 74.21 39.3211 74.37C39.5011 74.5233 39.5911 74.7233 39.5911 74.97C39.5911 75.23 39.5011 75.4467 39.3211 75.62C39.1478 75.7867 38.9144 75.87 38.6211 75.87ZM42.6589 82.08C42.1989 82.08 41.7556 82.0267 41.3289 81.92C40.9089 81.8067 40.5756 81.6667 40.3289 81.5L40.8489 80.38C41.0956 80.5333 41.3856 80.66 41.7189 80.76C42.0589 80.8533 42.3922 80.9 42.7189 80.9C43.0789 80.9 43.3322 80.8567 43.4789 80.77C43.6322 80.6833 43.7089 80.5633 43.7089 80.41C43.7089 80.2833 43.6489 80.19 43.5289 80.13C43.4156 80.0633 43.2622 80.0133 43.0689 79.98C42.8756 79.9467 42.6622 79.9133 42.4289 79.88C42.2022 79.8467 41.9722 79.8033 41.7389 79.75C41.5056 79.69 41.2922 79.6033 41.0989 79.49C40.9056 79.3767 40.7489 79.2233 40.6289 79.03C40.5156 78.8367 40.4589 78.5867 40.4589 78.28C40.4589 77.94 40.5556 77.64 40.7489 77.38C40.9489 77.12 41.2356 76.9167 41.6089 76.77C41.9822 76.6167 42.4289 76.54 42.9489 76.54C43.3156 76.54 43.6889 76.58 44.0689 76.66C44.4489 76.74 44.7656 76.8567 45.0189 77.01L44.4989 78.12C44.2389 77.9667 43.9756 77.8633 43.7089 77.81C43.4489 77.75 43.1956 77.72 42.9489 77.72C42.6022 77.72 42.3489 77.7667 42.1889 77.86C42.0289 77.9533 41.9489 78.0733 41.9489 78.22C41.9489 78.3533 42.0056 78.4533 42.1189 78.52C42.2389 78.5867 42.3956 78.64 42.5889 78.68C42.7822 78.72 42.9922 78.7567 43.2189 78.79C43.4522 78.8167 43.6856 78.86 43.9189 78.92C44.1522 78.98 44.3622 79.0667 44.5489 79.18C44.7422 79.2867 44.8989 79.4367 45.0189 79.63C45.1389 79.8167 45.1989 80.0633 45.1989 80.37C45.1989 80.7033 45.0989 81 44.8989 81.26C44.6989 81.5133 44.4089 81.7133 44.0289 81.86C43.6556 82.0067 43.1989 82.08 42.6589 82.08ZM46.1614 82V76.62H47.7214V82H46.1614ZM46.9414 75.87C46.6547 75.87 46.4214 75.7867 46.2414 75.62C46.0614 75.4533 45.9714 75.2467 45.9714 75C45.9714 74.7533 46.0614 74.5467 46.2414 74.38C46.4214 74.2133 46.6547 74.13 46.9414 74.13C47.2281 74.13 47.4614 74.21 47.6414 74.37C47.8214 74.5233 47.9114 74.7233 47.9114 74.97C47.9114 75.23 47.8214 75.4467 47.6414 75.62C47.4681 75.7867 47.2347 75.87 46.9414 75.87ZM51.7292 82.08C51.1559 82.08 50.6459 81.96 50.1992 81.72C49.7592 81.48 49.4092 81.1533 49.1492 80.74C48.8959 80.32 48.7692 79.8433 48.7692 79.31C48.7692 78.77 48.8959 78.2933 49.1492 77.88C49.4092 77.46 49.7592 77.1333 50.1992 76.9C50.6459 76.66 51.1559 76.54 51.7292 76.54C52.2959 76.54 52.8026 76.66 53.2492 76.9C53.6959 77.1333 54.0459 77.4567 54.2992 77.87C54.5526 78.2833 54.6792 78.7633 54.6792 79.31C54.6792 79.8433 54.5526 80.32 54.2992 80.74C54.0459 81.1533 53.6959 81.48 53.2492 81.72C52.8026 81.96 52.2959 82.08 51.7292 82.08ZM51.7292 80.8C51.9892 80.8 52.2226 80.74 52.4292 80.62C52.6359 80.5 52.7992 80.33 52.9192 80.11C53.0392 79.8833 53.0992 79.6167 53.0992 79.31C53.0992 78.9967 53.0392 78.73 52.9192 78.51C52.7992 78.29 52.6359 78.12 52.4292 78C52.2226 77.88 51.9892 77.82 51.7292 77.82C51.4692 77.82 51.2359 77.88 51.0292 78C50.8226 78.12 50.6559 78.29 50.5292 78.51C50.4092 78.73 50.3492 78.9967 50.3492 79.31C50.3492 79.6167 50.4092 79.8833 50.5292 80.11C50.6559 80.33 50.8226 80.5 51.0292 80.62C51.2359 80.74 51.4692 80.8 51.7292 80.8ZM58.992 76.54C59.4186 76.54 59.7986 76.6267 60.132 76.8C60.472 76.9667 60.7386 77.2267 60.932 77.58C61.1253 77.9267 61.222 78.3733 61.222 78.92V82H59.662V79.16C59.662 78.7267 59.5653 78.4067 59.372 78.2C59.1853 77.9933 58.9186 77.89 58.572 77.89C58.3253 77.89 58.102 77.9433 57.902 78.05C57.7086 78.15 57.5553 78.3067 57.442 78.52C57.3353 78.7333 57.282 79.0067 57.282 79.34V82H55.722V76.62H57.212V78.11L56.932 77.66C57.1253 77.3 57.402 77.0233 57.762 76.83C58.122 76.6367 58.532 76.54 58.992 76.54ZM62.366 83.54L63.026 81.14L63.246 82.04C62.9593 82.04 62.7227 81.9567 62.536 81.79C62.356 81.6233 62.266 81.3933 62.266 81.1C62.266 80.8067 62.3593 80.5733 62.546 80.4C62.7327 80.2267 62.9627 80.14 63.236 80.14C63.516 80.14 63.746 80.23 63.926 80.41C64.106 80.5833 64.196 80.8133 64.196 81.1C64.196 81.1867 64.1893 81.2733 64.176 81.36C64.1627 81.44 64.136 81.54 64.096 81.66C64.0627 81.7733 64.006 81.92 63.926 82.1L63.356 83.54H62.366ZM71.5952 82.12C71.0419 82.12 70.5286 82.03 70.0552 81.85C69.5886 81.67 69.1819 81.4167 68.8352 81.09C68.4952 80.7633 68.2286 80.38 68.0352 79.94C67.8486 79.5 67.7552 79.02 67.7552 78.5C67.7552 77.98 67.8486 77.5 68.0352 77.06C68.2286 76.62 68.4986 76.2367 68.8452 75.91C69.1919 75.5833 69.5986 75.33 70.0652 75.15C70.5319 74.97 71.0386 74.88 71.5852 74.88C72.1386 74.88 72.6452 74.97 73.1052 75.15C73.5719 75.33 73.9752 75.5833 74.3152 75.91C74.6619 76.2367 74.9319 76.62 75.1252 77.06C75.3186 77.4933 75.4152 77.9733 75.4152 78.5C75.4152 79.02 75.3186 79.5033 75.1252 79.95C74.9319 80.39 74.6619 80.7733 74.3152 81.1C73.9752 81.42 73.5719 81.67 73.1052 81.85C72.6452 82.03 72.1419 82.12 71.5952 82.12ZM71.5852 80.74C71.8986 80.74 72.1852 80.6867 72.4452 80.58C72.7119 80.4733 72.9452 80.32 73.1452 80.12C73.3452 79.92 73.4986 79.6833 73.6052 79.41C73.7186 79.1367 73.7752 78.8333 73.7752 78.5C73.7752 78.1667 73.7186 77.8633 73.6052 77.59C73.4986 77.3167 73.3452 77.08 73.1452 76.88C72.9519 76.68 72.7219 76.5267 72.4552 76.42C72.1886 76.3133 71.8986 76.26 71.5852 76.26C71.2719 76.26 70.9819 76.3133 70.7152 76.42C70.4552 76.5267 70.2252 76.68 70.0252 76.88C69.8252 77.08 69.6686 77.3167 69.5552 77.59C69.4486 77.8633 69.3952 78.1667 69.3952 78.5C69.3952 78.8267 69.4486 79.13 69.5552 79.41C69.6686 79.6833 69.8219 79.92 70.0152 80.12C70.2152 80.32 70.4486 80.4733 70.7152 80.58C70.9819 80.6867 71.2719 80.74 71.5852 80.74ZM78.7927 82.08C78.3461 82.08 77.9461 81.9933 77.5927 81.82C77.2461 81.6467 76.9761 81.3833 76.7827 81.03C76.5894 80.67 76.4927 80.2133 76.4927 79.66V76.62H78.0527V79.43C78.0527 79.8767 78.1461 80.2067 78.3327 80.42C78.5261 80.6267 78.7961 80.73 79.1427 80.73C79.3827 80.73 79.5961 80.68 79.7827 80.58C79.9694 80.4733 80.1161 80.3133 80.2227 80.1C80.3294 79.88 80.3827 79.6067 80.3827 79.28V76.62H81.9427V82H80.4627V80.52L80.7327 80.95C80.5527 81.3233 80.2861 81.6067 79.9327 81.8C79.5861 81.9867 79.2061 82.08 78.7927 82.08ZM83.388 82V76.62H84.878V78.14L84.668 77.7C84.828 77.32 85.0846 77.0333 85.438 76.84C85.7913 76.64 86.2213 76.54 86.728 76.54V77.98C86.6613 77.9733 86.6013 77.97 86.548 77.97C86.4946 77.9633 86.438 77.96 86.378 77.96C85.9513 77.96 85.6046 78.0833 85.338 78.33C85.078 78.57 84.948 78.9467 84.948 79.46V82H83.388ZM90.6366 82V75H93.6666C94.2933 75 94.8333 75.1033 95.2866 75.31C95.74 75.51 96.09 75.8 96.3366 76.18C96.5833 76.56 96.7066 77.0133 96.7066 77.54C96.7066 78.06 96.5833 78.51 96.3366 78.89C96.09 79.27 95.74 79.5633 95.2866 79.77C94.8333 79.97 94.2933 80.07 93.6666 80.07H91.5366L92.2566 79.34V82H90.6366ZM92.2566 79.52L91.5366 78.75H93.5766C94.0766 78.75 94.45 78.6433 94.6966 78.43C94.9433 78.2167 95.0666 77.92 95.0666 77.54C95.0666 77.1533 94.9433 76.8533 94.6966 76.64C94.45 76.4267 94.0766 76.32 93.5766 76.32H91.5366L92.2566 75.55V79.52ZM97.7434 82V76.62H99.2334V78.14L99.0234 77.7C99.1834 77.32 99.4401 77.0333 99.7934 76.84C100.147 76.64 100.577 76.54 101.083 76.54V77.98C101.017 77.9733 100.957 77.97 100.903 77.97C100.85 77.9633 100.793 77.96 100.733 77.96C100.307 77.96 99.9601 78.0833 99.6934 78.33C99.4334 78.57 99.3034 78.9467 99.3034 79.46V82H97.7434ZM104.642 82.08C104.029 82.08 103.489 81.96 103.022 81.72C102.562 81.48 102.205 81.1533 101.952 80.74C101.699 80.32 101.572 79.8433 101.572 79.31C101.572 78.77 101.695 78.2933 101.942 77.88C102.195 77.46 102.539 77.1333 102.972 76.9C103.405 76.66 103.895 76.54 104.442 76.54C104.969 76.54 105.442 76.6533 105.862 76.88C106.289 77.1 106.625 77.42 106.872 77.84C107.119 78.2533 107.242 78.75 107.242 79.33C107.242 79.39 107.239 79.46 107.232 79.54C107.225 79.6133 107.219 79.6833 107.212 79.75H102.842V78.84H106.392L105.792 79.11C105.792 78.83 105.735 78.5867 105.622 78.38C105.509 78.1733 105.352 78.0133 105.152 77.9C104.952 77.78 104.719 77.72 104.452 77.72C104.185 77.72 103.949 77.78 103.742 77.9C103.542 78.0133 103.385 78.1767 103.272 78.39C103.159 78.5967 103.102 78.8433 103.102 79.13V79.37C103.102 79.6633 103.165 79.9233 103.292 80.15C103.425 80.37 103.609 80.54 103.842 80.66C104.082 80.7733 104.362 80.83 104.682 80.83C104.969 80.83 105.219 80.7867 105.432 80.7C105.652 80.6133 105.852 80.4833 106.032 80.31L106.862 81.21C106.615 81.49 106.305 81.7067 105.932 81.86C105.559 82.0067 105.129 82.08 104.642 82.08ZM110.881 82.08C110.301 82.08 109.784 81.9633 109.331 81.73C108.877 81.49 108.521 81.16 108.261 80.74C108.007 80.32 107.881 79.8433 107.881 79.31C107.881 78.77 108.007 78.2933 108.261 77.88C108.521 77.46 108.877 77.1333 109.331 76.9C109.784 76.66 110.301 76.54 110.881 76.54C111.447 76.54 111.941 76.66 112.361 76.9C112.781 77.1333 113.091 77.47 113.291 77.91L112.081 78.56C111.941 78.3067 111.764 78.12 111.551 78C111.344 77.88 111.117 77.82 110.871 77.82C110.604 77.82 110.364 77.88 110.151 78C109.937 78.12 109.767 78.29 109.641 78.51C109.521 78.73 109.461 78.9967 109.461 79.31C109.461 79.6233 109.521 79.89 109.641 80.11C109.767 80.33 109.937 80.5 110.151 80.62C110.364 80.74 110.604 80.8 110.871 80.8C111.117 80.8 111.344 80.7433 111.551 80.63C111.764 80.51 111.941 80.32 112.081 80.06L113.291 80.72C113.091 81.1533 112.781 81.49 112.361 81.73C111.941 81.9633 111.447 82.08 110.881 82.08ZM114.159 82V76.62H115.719V82H114.159ZM114.939 75.87C114.653 75.87 114.419 75.7867 114.239 75.62C114.059 75.4533 113.969 75.2467 113.969 75C113.969 74.7533 114.059 74.5467 114.239 74.38C114.419 74.2133 114.653 74.13 114.939 74.13C115.226 74.13 115.459 74.21 115.639 74.37C115.819 74.5233 115.909 74.7233 115.909 74.97C115.909 75.23 115.819 75.4467 115.639 75.62C115.466 75.7867 115.233 75.87 114.939 75.87ZM118.977 82.08C118.517 82.08 118.074 82.0267 117.647 81.92C117.227 81.8067 116.894 81.6667 116.647 81.5L117.167 80.38C117.414 80.5333 117.704 80.66 118.037 80.76C118.377 80.8533 118.711 80.9 119.037 80.9C119.397 80.9 119.651 80.8567 119.797 80.77C119.951 80.6833 120.027 80.5633 120.027 80.41C120.027 80.2833 119.967 80.19 119.847 80.13C119.734 80.0633 119.581 80.0133 119.387 79.98C119.194 79.9467 118.981 79.9133 118.747 79.88C118.521 79.8467 118.291 79.8033 118.057 79.75C117.824 79.69 117.611 79.6033 117.417 79.49C117.224 79.3767 117.067 79.2233 116.947 79.03C116.834 78.8367 116.777 78.5867 116.777 78.28C116.777 77.94 116.874 77.64 117.067 77.38C117.267 77.12 117.554 76.9167 117.927 76.77C118.301 76.6167 118.747 76.54 119.267 76.54C119.634 76.54 120.007 76.58 120.387 76.66C120.767 76.74 121.084 76.8567 121.337 77.01L120.817 78.12C120.557 77.9667 120.294 77.8633 120.027 77.81C119.767 77.75 119.514 77.72 119.267 77.72C118.921 77.72 118.667 77.7667 118.507 77.86C118.347 77.9533 118.267 78.0733 118.267 78.22C118.267 78.3533 118.324 78.4533 118.437 78.52C118.557 78.5867 118.714 78.64 118.907 78.68C119.101 78.72 119.311 78.7567 119.537 78.79C119.771 78.8167 120.004 78.86 120.237 78.92C120.471 78.98 120.681 79.0667 120.867 79.18C121.061 79.2867 121.217 79.4367 121.337 79.63C121.457 79.8167 121.517 80.0633 121.517 80.37C121.517 80.7033 121.417 81 121.217 81.26C121.017 81.5133 120.727 81.7133 120.347 81.86C119.974 82.0067 119.517 82.08 118.977 82.08ZM122.48 82V76.62H124.04V82H122.48ZM123.26 75.87C122.973 75.87 122.74 75.7867 122.56 75.62C122.38 75.4533 122.29 75.2467 122.29 75C122.29 74.7533 122.38 74.5467 122.56 74.38C122.74 74.2133 122.973 74.13 123.26 74.13C123.546 74.13 123.78 74.21 123.96 74.37C124.14 74.5233 124.23 74.7233 124.23 74.97C124.23 75.23 124.14 75.4467 123.96 75.62C123.786 75.7867 123.553 75.87 123.26 75.87ZM128.048 82.08C127.474 82.08 126.964 81.96 126.518 81.72C126.078 81.48 125.728 81.1533 125.468 80.74C125.214 80.32 125.088 79.8433 125.088 79.31C125.088 78.77 125.214 78.2933 125.468 77.88C125.728 77.46 126.078 77.1333 126.518 76.9C126.964 76.66 127.474 76.54 128.048 76.54C128.614 76.54 129.121 76.66 129.568 76.9C130.014 77.1333 130.364 77.4567 130.618 77.87C130.871 78.2833 130.998 78.7633 130.998 79.31C130.998 79.8433 130.871 80.32 130.618 80.74C130.364 81.1533 130.014 81.48 129.568 81.72C129.121 81.96 128.614 82.08 128.048 82.08ZM128.048 80.8C128.308 80.8 128.541 80.74 128.748 80.62C128.954 80.5 129.118 80.33 129.238 80.11C129.358 79.8833 129.418 79.6167 129.418 79.31C129.418 78.9967 129.358 78.73 129.238 78.51C129.118 78.29 128.954 78.12 128.748 78C128.541 77.88 128.308 77.82 128.048 77.82C127.788 77.82 127.554 77.88 127.348 78C127.141 78.12 126.974 78.29 126.848 78.51C126.728 78.73 126.668 78.9967 126.668 79.31C126.668 79.6167 126.728 79.8833 126.848 80.11C126.974 80.33 127.141 80.5 127.348 80.62C127.554 80.74 127.788 80.8 128.048 80.8ZM135.31 76.54C135.737 76.54 136.117 76.6267 136.45 76.8C136.79 76.9667 137.057 77.2267 137.25 77.58C137.444 77.9267 137.54 78.3733 137.54 78.92V82H135.98V79.16C135.98 78.7267 135.884 78.4067 135.69 78.2C135.504 77.9933 135.237 77.89 134.89 77.89C134.644 77.89 134.42 77.9433 134.22 78.05C134.027 78.15 133.874 78.3067 133.76 78.52C133.654 78.7333 133.6 79.0067 133.6 79.34V82H132.04V76.62H133.53V78.11L133.25 77.66C133.444 77.3 133.72 77.0233 134.08 76.83C134.44 76.6367 134.85 76.54 135.31 76.54Z" fill="#B2AEAE"/>
<path d="M68.1698 36H135V39H63L68.1698 36Z" fill="#FFFCFC"/>
<rect x="135" y="36" width="3" height="36" fill="#FFFCFC"/>
</svg>
